<?xml version="1.0" encoding="iso-8859-1"?>
<!-- Generator: Adobe Illustrator 19.0.0, SVG Export Plug-In . SVG Version: 6.00 Build 0)  -->
<svg version="1.1" id="Layer_1" xmlns="http://www.w3.org/2000/svg" xmlns:xlink="http://www.w3.org/1999/xlink" x="0px" y="0px"
	 viewBox="0 0 512 512" style="enable-background:new 0 0 512 512;" xml:space="preserve">
<polygon style="fill:#06384A;" points="395.692,38.552 372.894,61.327 345.718,45.427 379.769,22.652 "/>
<g>
	<polygon style="fill:#084B63;" points="357.095,0 379.769,22.652 351.5,50.898 334.297,22.776 	"/>
	<polygon style="fill:#084B63;" points="372.894,61.327 309.372,124.782 270.944,105.495 356.971,45.427 	"/>
</g>
<polygon style="fill:#146A8A;" points="334.297,22.776 356.971,45.427 286.681,115.639 270.775,86.219 "/>
<g>
	<rect x="221.69" y="207.219" style="fill:#084B63;" width="44.609" height="55.69"/>
	
		<rect x="139.429" y="162.541" transform="matrix(-0.9167 0.3997 -0.3997 -0.9167 394.489 287.4311)" style="fill:#084B63;" width="55.693" height="44.611"/>
	<polygon style="fill:#084B63;" points="324.54,433.636 324.54,501.096 245.771,501.096 279.53,433.636 	"/>
</g>
<rect x="217.324" y="433.636" style="fill:#146A8A;" width="62.205" height="67.46"/>
<path style="fill:#419EBE;" d="M402.837,182.204l-88.21-30.686l-4.366,13.638l79.343,66.583l26.073,76.361l19.04-2.813v-78.274
	C434.716,208.468,420.369,188.303,402.837,182.204z"/>
<path style="fill:#62B3CD;" d="M415.676,236.375V308.1l-38.068,5.626v-58.616c0-9.272-6.504-20.784-14.46-25.566l-61.62-37.1
	l8.732-27.288l79.343,32.824C403.951,203.641,415.676,220.925,415.676,236.375z"/>
<polygon style="fill:#82C8DB;" points="434.716,322.166 434.716,478.591 389.705,489.843 389.705,310.913 "/>
<rect x="302.035" y="313.727" style="fill:#A3DDE9;" width="98.923" height="176.117"/>
<g>
	<path style="fill:#06384A;" d="M85.971,478.591c-18.466,0-33.443,14.955-33.443,33.409h382.188v-33.409H85.971z"/>
	<path style="fill:#06384A;" d="M179.309,305.293c-4.661,0-8.44,3.778-8.44,8.44s3.779,8.44,8.44,8.44h255.405v-16.879H179.309z"/>
	<path style="fill:#06384A;" d="M412.852,351.738v94.388c25.769-0.338,46.62-21.38,46.62-47.194S438.621,352.076,412.852,351.738z"
		/>
</g>
<path style="fill:#084B63;" d="M412.852,351.738c13.357,0.653,24.115,21.572,24.115,47.194s-10.758,46.541-24.115,47.194
	c-0.214,0.011-0.428,0.011-0.641,0.011c-26.061,0-47.262-21.178-47.262-47.205s21.2-47.205,47.262-47.205
	C412.424,351.727,412.638,351.727,412.852,351.738z"/>
<path style="fill:#82C8DB;" d="M309.372,124.782l-38.597-38.563c-8.259-3.376-17.307-5.244-26.782-5.244v141.098
	c39.002,0,70.633-31.586,70.633-70.555C314.627,142.055,312.759,133.03,309.372,124.782z"/>
<path style="fill:#A3DDE9;" d="M243.993,80.975c-39.013,0-70.633,31.586-70.633,70.543c0,38.968,31.62,70.555,70.633,70.555
	c20.367,0,36.875-31.586,36.875-70.555C280.869,112.561,264.361,80.975,243.993,80.975z"/>
<g>
</g>
<g>
</g>
<g>
</g>
<g>
</g>
<g>
</g>
<g>
</g>
<g>
</g>
<g>
</g>
<g>
</g>
<g>
</g>
<g>
</g>
<g>
</g>
<g>
</g>
<g>
</g>
<g>
</g>
</svg>
