<?xml version="1.0" encoding="iso-8859-1"?>
<!-- Generator: Adobe Illustrator 19.0.0, SVG Export Plug-In . SVG Version: 6.00 Build 0)  -->
<svg version="1.1" id="Capa_1" xmlns="http://www.w3.org/2000/svg" xmlns:xlink="http://www.w3.org/1999/xlink" x="0px" y="0px"
	 viewBox="0 0 480 480" style="enable-background:new 0 0 480 480;" xml:space="preserve">
<path style="fill:#E6E6E6;" d="M119.981,32h336v440h-336V32z"/>
<path style="fill:#0071BC;" d="M207.981,8h144v48h-144V8z"/>
<path style="fill:#F7931E;" d="M231.981,304h176l-16,32v136h-160V304z"/>
<path style="fill:#29ABE2;" d="M159.981,200h-48v144l-83.84,99.088c-2.68,3.161-4.153,7.168-4.16,11.312c0,9.72,7.88,17.6,17.6,17.6
	c0,0,0,0,0,0h188.8c9.72,0,17.6-7.88,17.6-17.6l0,0c0.001-4.155-1.473-8.175-4.16-11.344L159.981,344L159.981,200z"/>
<g>
	<path style="fill:#0071BC;" d="M200.597,392H71.365l-43.2,51.088c-6.248,7.447-5.275,18.548,2.171,24.795
		c3.152,2.644,7.131,4.101,11.245,4.117h188.8c9.72-0.042,17.566-7.955,17.525-17.675c-0.018-4.112-1.474-8.087-4.117-11.237
		L200.597,392z"/>
	<path style="fill:#0071BC;" d="M95.981,176h80v32h-80V176z"/>
</g>
<path d="M22.029,437.92c-9.102,10.819-7.709,26.968,3.11,36.07c4.604,3.873,10.425,6.001,16.442,6.01h414.4c4.418,0,8-3.582,8-8V32
	c0-4.418-3.582-8-8-8h-96V8c0-4.418-3.582-8-8-8h-144c-4.418,0-8,3.582-8,8v16h-80c-4.418,0-8,3.582-8,8v136h-16
	c-4.418,0-8,3.582-8,8v32c0,4.418,3.582,8,8,8h8v125.072L22.029,437.92z M41.581,464c-5.302-0.04-9.567-4.37-9.528-9.672
	c0.017-2.22,0.802-4.366,2.224-6.072L47.981,432h96v-16h-82.4l13.536-16h121.768l40.8,48.264c3.411,4.03,2.909,10.062-1.121,13.473
	c-1.728,1.462-3.919,2.264-6.183,2.263H41.581z M343.981,464v-96h-16v96h-73.896c3.599-8.786,1.998-18.846-4.152-26.08l-9.952-11.76
	V312h155.056l-10.216,20.424c-0.554,1.111-0.841,2.335-0.84,3.576h-24v16h24v16h-24v16h24v16h-24v16h24v16h-24v16h24v16H343.981z
	 M215.981,16h128v32h-128V16z M127.981,40h72v16c0,4.418,3.582,8,8,8h144c4.418,0,8-3.582,8-8V40h88v424h-48V337.888l15.2-30.312
	c1.975-3.952,0.372-8.757-3.58-10.732c-1.124-0.562-2.364-0.851-3.62-0.844h-176c-4.418,0-8,3.582-8,8v103.256l-56-66.184V216h8
	c4.418,0,8-3.582,8-8v-32c0-4.418-3.582-8-8-8h-48V40z M103.981,184h64v16h-64V184z M151.981,216v128
	c0.001,1.893,0.673,3.724,1.896,5.168L183.349,384H88.613l29.472-34.832c1.223-1.444,1.895-3.275,1.896-5.168v-32h16v-16h-16v-16h16
	v-16h-16v-16h16v-16h-16v-16H151.981z"/>
<path d="M159.981,416h16v16h-16V416z"/>
<path d="M327.981,336h16v16h-16V336z"/>
<path d="M207.981,176h22.112l25.888,12.944V208h16v-19.056l24-12l24,12V208h16v-19.056l27.576-13.744
	c2.725-1.362,4.441-4.153,4.424-7.2v-32h16v-16h-22.112l-25.888-12.944V88h-16v19.056l-24,12l-24-12V88h-16v19.056l-27.576,13.784
	c-2.712,1.355-4.425,4.128-4.424,7.16v32h-16V176z M351.981,163.056l-24,12l-24-12v-30.112l24-12l24,12V163.056z M239.981,132.944
	l24-12l24,12v30.112l-24,12l-24-12V132.944z"/>
<path d="M191.981,256h200v16h-200V256z"/>
<path d="M239.981,224h184v16h-184V224z"/>
<path d="M207.981,224h16v16h-16V224z"/>
<path d="M159.981,96h16v16h-16V96z"/>
<path d="M191.981,96h16v16h-16V96z"/>
<path d="M375.981,80h16v16h-16V80z"/>
<path d="M407.981,80h16v16h-16V80z"/>
<g>
</g>
<g>
</g>
<g>
</g>
<g>
</g>
<g>
</g>
<g>
</g>
<g>
</g>
<g>
</g>
<g>
</g>
<g>
</g>
<g>
</g>
<g>
</g>
<g>
</g>
<g>
</g>
<g>
</g>
</svg>
